<svg width="50" height="50" viewBox="0 0 50 50" fill="none" xmlns="http://www.w3.org/2000/svg">
<path d="M34.8313 41.15L33.498 30.475C33.309 28.963 32.5742 27.572 31.4317 26.5638C30.2891 25.5555 28.8176 24.9994 27.2938 25H22.7022C21.1791 25.0004 19.7086 25.557 18.5669 26.5652C17.4253 27.5733 16.691 28.9637 16.5022 30.475L15.1667 41.15C15.0935 41.7365 15.1458 42.3319 15.3202 42.8966C15.4947 43.4613 15.7873 43.9824 16.1786 44.4254C16.57 44.8683 17.051 45.2229 17.5899 45.4657C18.1288 45.7084 18.7132 45.8338 19.3042 45.8333H30.6959C31.2868 45.8335 31.8709 45.7079 32.4096 45.465C32.9482 45.2222 33.429 44.8675 33.8201 44.4246C34.2112 43.9817 34.5036 43.4606 34.678 42.8961C34.8523 42.3315 34.9046 41.7363 34.8313 41.15V41.15Z" stroke="white" stroke-width="2" stroke-linecap="round" stroke-linejoin="round"/>
<path d="M25 16.6667C28.4518 16.6667 31.25 13.8685 31.25 10.4167C31.25 6.96491 28.4518 4.16669 25 4.16669C21.5482 4.16669 18.75 6.96491 18.75 10.4167C18.75 13.8685 21.5482 16.6667 25 16.6667Z" stroke="white" stroke-width="2"/>
<path d="M8.33335 22.9167C10.6345 22.9167 12.5 21.0512 12.5 18.75C12.5 16.4489 10.6345 14.5834 8.33335 14.5834C6.03217 14.5834 4.16669 16.4489 4.16669 18.75C4.16669 21.0512 6.03217 22.9167 8.33335 22.9167Z" stroke="white" stroke-width="2"/>
<path d="M41.6667 22.9167C43.9679 22.9167 45.8333 21.0512 45.8333 18.75C45.8333 16.4489 43.9679 14.5834 41.6667 14.5834C39.3655 14.5834 37.5 16.4489 37.5 18.75C37.5 21.0512 39.3655 22.9167 41.6667 22.9167Z" stroke="white" stroke-width="2"/>
<path d="M8.33339 29.1667H7.69589C6.70956 29.1666 5.75517 29.5163 5.00251 30.1538C4.24985 30.7913 3.74772 31.675 3.58547 32.6479L2.89172 36.8146C2.79217 37.4116 2.82385 38.0231 2.98458 38.6065C3.1453 39.19 3.43121 39.7315 3.82241 40.1933C4.21361 40.6551 4.70071 41.0261 5.24983 41.2805C5.79896 41.535 6.39693 41.6668 7.00214 41.6667H14.5834" stroke="white" stroke-width="2" stroke-linecap="round" stroke-linejoin="round"/>
<path d="M41.6667 29.1667H42.3042C43.2905 29.1666 44.2449 29.5163 44.9976 30.1538C45.7502 30.7913 46.2524 31.675 46.4146 32.6479L47.1084 36.8146C47.2079 37.4116 47.1762 38.0231 47.0155 38.6065C46.8548 39.19 46.5689 39.7315 46.1777 40.1933C45.7865 40.6551 45.2994 41.0261 44.7502 41.2805C44.2011 41.535 43.6032 41.6668 42.9979 41.6667H35.4167" stroke="white" stroke-width="2" stroke-linecap="round" stroke-linejoin="round"/>
</svg>
