<svg width="50" height="50" viewBox="0 0 50 50" fill="none" xmlns="http://www.w3.org/2000/svg">
<g clip-path="url(#clip0_103_84)">
<path d="M31.25 39.5834H18.75V17.9167C18.75 17.5852 18.8817 17.2672 19.1161 17.0328C19.3505 16.7984 19.6685 16.6667 20 16.6667H30C30.3315 16.6667 30.6495 16.7984 30.8839 17.0328C31.1183 17.2672 31.25 17.5852 31.25 17.9167V39.5834V39.5834Z" stroke="white" stroke-width="1.5" stroke-linecap="round" stroke-linejoin="round"/>
<path d="M31.25 10.4167H18.75" stroke="white" stroke-width="1.5" stroke-linecap="round" stroke-linejoin="round"/>
<path d="M42.5 39.5834H31.25V31.4584C31.25 31.1269 31.3817 30.8089 31.6161 30.5745C31.8505 30.3401 32.1685 30.2084 32.5 30.2084H42.5C42.8315 30.2084 43.1495 30.3401 43.3839 30.5745C43.6183 30.8089 43.75 31.1269 43.75 31.4584V38.3334C43.75 38.6649 43.6183 38.9828 43.3839 39.2173C43.1495 39.4517 42.8315 39.5834 42.5 39.5834V39.5834Z" stroke="white" stroke-width="1.5" stroke-linecap="round" stroke-linejoin="round"/>
<path d="M18.75 39.5834V27.2917C18.75 26.9602 18.6183 26.6422 18.3839 26.4078C18.1495 26.1734 17.8315 26.0417 17.5 26.0417H7.5C7.16848 26.0417 6.85054 26.1734 6.61612 26.4078C6.3817 26.6422 6.25 26.9602 6.25 27.2917V38.3334C6.25 38.6649 6.3817 38.9828 6.61612 39.2172C6.85054 39.4517 7.16848 39.5834 7.5 39.5834H18.75Z" stroke="white" stroke-width="1.5" stroke-linecap="round" stroke-linejoin="round"/>
<path d="M10.7242 8.47483C10.5202 8.45585 10.3155 8.44537 10.1106 8.44342C6.04752 8.44342 2.75549 11.7415 2.75549 15.8112C2.75549 17.0253 3.05409 18.1667 3.57299 19.1759C3.30242 18.3546 3.16429 17.4954 3.16377 16.6306C3.16377 12.3158 6.49705 8.78889 10.7242 8.47483" fill="white"/>
<path d="M13.0623 21.8464C12.3441 22.3275 11.5552 22.6937 10.7242 22.932C11.885 22.7891 12.9958 22.3752 13.967 21.7236C17.3434 19.4539 18.2598 14.9267 16.0141 11.6089C15.8995 11.4432 15.778 11.2824 15.6498 11.127C17.725 14.7519 16.6412 19.4403 13.0623 21.8464" fill="white"/>
<path d="M15.9325 8.43078V4.35359C15.9325 4.18297 15.8392 4.03953 15.7075 3.95047L20.3125 -3.0625H11.4831L10 -0.837813L8.51688 -3.0625H-0.3125L4.29156 3.95C4.15984 4.03906 4.06656 4.18297 4.06656 4.35359V8.43078C1.96609 10.1502 0.625 12.7616 0.625 15.6875C0.625 20.8648 4.82266 25.0625 10 25.0625C10.3197 25.0625 10.6347 25.0461 10.9459 25.0147C15.6789 24.5408 19.375 20.5461 19.375 15.6875C19.375 12.7616 18.033 10.1502 15.9325 8.43078ZM14.1372 -2.59375H17.1034L12.9662 3.61203L11.4831 1.38734L14.1372 -2.59375ZM14.4494 5.83672L14.9055 5.15328C14.9303 5.21188 14.9439 5.27562 14.9439 5.34266V7.32031C14.9435 7.38148 14.9309 7.44196 14.9071 7.49827C14.8832 7.55459 14.8484 7.60562 14.8047 7.64844C13.3984 6.80563 11.7588 6.3125 10 6.3125C8.30642 6.31278 6.64496 6.77482 5.19437 7.64891C5.10646 7.56202 5.05642 7.44392 5.05516 7.32031V5.34266C5.05516 5.27562 5.06969 5.21141 5.09359 5.15328L5.54969 5.83719H14.4494V5.83672ZM2.89656 -2.59375H5.86281L11.1709 5.36797H8.20469L2.89656 -2.59375ZM10 23.6562C5.59891 23.6562 2.03125 20.0886 2.03125 15.6875C2.03125 11.2869 5.59891 7.71875 10 7.71875C14.4002 7.71875 17.9688 11.2869 17.9688 15.6875C17.9688 20.0886 14.4002 23.6562 10 23.6562Z" fill="white"/>
<path d="M11.0472 19.0658V10.5312H9.24531C9.24537 10.7181 9.20863 10.903 9.13718 11.0756C9.06574 11.2482 8.96099 11.4051 8.82892 11.5372C8.69685 11.6693 8.54005 11.7741 8.36748 11.8456C8.1949 11.9171 8.00992 11.9539 7.82312 11.9539V13.7319C7.95156 13.7319 8.92234 13.6587 9.24531 13.5294V19.0658H7.82312V20.8438H12.4694V19.0658H11.0472Z" fill="white"/>
</g>
<defs>
<clipPath id="clip0_103_84">
<rect width="50" height="50" fill="white"/>
</clipPath>
</defs>
</svg>
