<svg width="50" height="51" viewBox="0 0 50 51" fill="none" xmlns="http://www.w3.org/2000/svg">
<path d="M36.4583 30.2868C38.1042 30.2868 39.8542 30.4559 41.6667 30.7941V33.9644C40.375 33.6262 38.625 33.4571 36.4583 33.4571C32.5 33.4571 29.3958 34.1546 27.0833 35.5495V31.9776C29.5208 30.8575 32.6458 30.2868 36.4583 30.2868ZM27.0833 26.3345C29.7708 25.2144 32.8958 24.6648 36.4583 24.6648C38.1042 24.6648 39.8542 24.8128 41.6667 25.151V28.3212C40.375 27.9831 38.625 27.814 36.4583 27.814C32.5 27.814 29.3958 28.5326 27.0833 29.9064V26.3345ZM36.4583 22.192C32.5 22.192 29.3958 22.8684 27.0833 24.3055V20.7971C29.6458 19.6135 32.7708 19.0217 36.4583 19.0217C38.1042 19.0217 39.8542 19.1908 41.6667 19.5078V22.7838C40.125 22.3822 38.3542 22.192 36.4583 22.192ZM43.75 39.1002V14.7947C41.5833 14.0972 39.1458 13.7379 36.4583 13.7379C32.1875 13.7379 28.375 14.7947 25 16.9082V41.2138C28.375 39.1002 32.1875 38.0435 36.4583 38.0435C38.9375 38.0435 41.375 38.3816 43.75 39.1002ZM36.4583 9.51086C41.3542 9.51086 45.1875 10.5676 47.9167 12.6812V43.4541C47.9167 43.7077 47.8125 43.9613 47.5833 44.1938C47.3542 44.384 47.1042 44.5531 46.875 44.5531C46.6458 44.5531 46.4792 44.5109 46.3542 44.4475C43.6875 42.9891 40.375 42.2705 36.4583 42.2705C32.1875 42.2705 28.375 43.3273 25 45.4408C22.2083 43.3273 18.3958 42.2705 13.5417 42.2705C10.0833 42.2705 6.77084 43.0314 3.64584 44.532C3.58334 44.5531 3.50001 44.5531 3.39584 44.5954C3.31251 44.6165 3.22918 44.6377 3.12501 44.6377C2.89584 44.6377 2.64584 44.5531 2.41668 44.384C2.31332 44.2912 2.23027 44.1774 2.17286 44.05C2.11545 43.9226 2.08496 43.7844 2.08334 43.6443V12.6812C4.87501 10.5676 8.70834 9.51086 13.5417 9.51086C18.3958 9.51086 22.2083 10.5676 25 12.6812C27.7917 10.5676 31.6042 9.51086 36.4583 9.51086Z" fill="white"/>
</svg>
