<svg width="49" height="45" viewBox="0 0 49 45" fill="none" xmlns="http://www.w3.org/2000/svg">
<path d="M0 8.98617V36.0138C0 38.5023 1.02528 40.7143 2.66572 42.4424C4.30616 44.1014 6.42507 45 8.88573 45H22.2827V39.4009H8.88573C7.04024 39.4009 5.60485 37.8802 5.60485 36.0138V8.98617C5.60485 7.11982 7.04024 5.6682 8.88573 5.6682H22.2827V0H8.88573C6.42507 0 4.30616 0.967742 2.66572 2.62673C1.02528 4.35484 0 6.4977 0 8.98617ZM14.6956 17.1429V27.9263C14.6956 29.1705 15.7893 30.2074 17.0196 30.2074H29.3913V38.7097C29.3913 39.47 29.8014 40.0922 30.4849 40.4378C30.7583 40.5069 31.0317 40.5069 31.1684 40.5069C31.6469 40.5069 32.057 40.3687 32.3988 40.023L48.4614 23.7788C49.2133 23.1567 49.1449 21.9124 48.4614 21.2212L32.3988 5.04608C31.4418 4.00922 29.3913 4.63134 29.3913 6.29032V14.8618H17.0196C15.7893 14.8618 14.6956 15.8986 14.6956 17.1429Z" fill="white"/>
</svg>
