<svg width="50" height="51" viewBox="0 0 50 51" fill="none" xmlns="http://www.w3.org/2000/svg">
<path d="M27.0834 6.34058C35.1667 6.34058 41.6667 12.9771 41.6667 21.1353C41.6667 27.0531 38.2709 32.1045 33.3334 34.4716V44.3841H18.75V38.0435H16.6667C14.3542 38.0435 12.5 36.1624 12.5 33.8164V27.4758H9.37503C8.50003 27.4758 8.00003 26.4191 8.50003 25.7639L12.5 20.4167C12.6836 16.6193 14.3005 13.0392 17.0156 10.4185C19.7307 7.79786 23.3357 6.33764 27.0834 6.34058ZM27.0834 2.11353C17.5209 2.11353 9.6042 9.34178 8.45837 18.8104L5.20837 23.2488H5.14587L5.1042 23.3122C3.95837 24.9185 3.81253 27.032 4.70837 28.7862C5.45837 30.2446 6.7917 31.2591 8.33337 31.5761V33.8164C8.33337 37.7264 11 41.0447 14.5834 41.9958V48.6111H37.5V36.9867C42.7084 33.4571 45.8334 27.6027 45.8334 21.1353C45.8334 10.631 37.4167 2.11353 27.0834 2.11353ZM36.1042 19.6558L32.0209 20.7337L35.0209 23.8194C35.75 24.538 35.75 25.7639 35.0209 26.5036C34.2917 27.2434 33.0834 27.2434 32.375 26.5036L29.3542 23.4601L28.2709 27.6027C28.0209 28.6383 27 29.2089 26.0417 28.9553C25.7991 28.8937 25.571 28.7839 25.3704 28.6324C25.1698 28.4809 25.0007 28.2907 24.8729 28.0726C24.7451 27.8546 24.6611 27.613 24.6257 27.3619C24.5903 27.1107 24.6042 26.855 24.6667 26.6093L25.7709 22.4668L21.6875 23.587C21.4454 23.6503 21.1933 23.6645 20.9457 23.6285C20.6982 23.5926 20.4601 23.5074 20.2451 23.3778C20.0302 23.2481 19.8426 23.0766 19.6933 22.8731C19.544 22.6696 19.4358 22.4381 19.375 22.192C19.125 21.2409 19.7084 20.1842 20.7084 19.9306L24.7917 18.8315L21.7917 15.7669C21.4783 15.4037 21.3127 14.9333 21.3284 14.4509C21.3442 13.9684 21.5401 13.5101 21.8766 13.1688C22.213 12.8275 22.6648 12.6287 23.1403 12.6127C23.6158 12.5967 24.0796 12.7648 24.4375 13.0827L27.4792 16.1262L28.5417 11.9837C28.7917 10.9481 29.8334 10.3563 30.8125 10.631C31.8334 10.9058 32.4167 11.9414 32.1459 12.9559L31.0417 17.1196L35.1459 15.9994C36.1459 15.7246 37.1667 16.3164 37.4375 17.3521C37.7084 18.3454 37.125 19.4022 36.1042 19.6558Z" fill="white"/>
</svg>
