<svg width="50" height="51" viewBox="0 0 50 51" fill="none" xmlns="http://www.w3.org/2000/svg">
<path d="M25 17.0531C27.2102 17.0531 29.3298 17.9438 30.8926 19.5293C32.4554 21.1147 33.3334 23.265 33.3334 25.5072C33.3334 27.7494 32.4554 29.8997 30.8926 31.4852C29.3298 33.0706 27.2102 33.9613 25 33.9613C22.7899 33.9613 20.6703 33.0706 19.1075 31.4852C17.5447 29.8997 16.6667 27.7494 16.6667 25.5072C16.6667 23.265 17.5447 21.1147 19.1075 19.5293C20.6703 17.9438 22.7899 17.0531 25 17.0531ZM25 21.2802C23.895 21.2802 22.8352 21.7255 22.0538 22.5182C21.2724 23.311 20.8334 24.3861 20.8334 25.5072C20.8334 26.6283 21.2724 27.7035 22.0538 28.4962C22.8352 29.2889 23.895 29.7343 25 29.7343C26.1051 29.7343 27.1649 29.2889 27.9463 28.4962C28.7277 27.7035 29.1667 26.6283 29.1667 25.5072C29.1667 24.3861 28.7277 23.311 27.9463 22.5182C27.1649 21.7255 26.1051 21.2802 25 21.2802ZM20.8334 46.6425C20.3125 46.6425 19.875 46.262 19.7917 45.7548L19.0209 40.154C17.7084 39.6256 16.5834 38.907 15.5 38.0616L10.3125 40.1962C9.8542 40.3653 9.2917 40.1962 9.0417 39.7312L4.87503 32.4184C4.74752 32.2007 4.70257 31.9432 4.74858 31.6943C4.79459 31.4453 4.92842 31.2219 5.12503 31.0658L9.52086 27.5573L9.37503 25.5072L9.52086 23.3937L5.12503 19.9486C4.92842 19.7925 4.79459 19.5691 4.74858 19.3201C4.70257 19.0712 4.74752 18.8138 4.87503 18.596L9.0417 11.2832C9.2917 10.8182 9.8542 10.628 10.3125 10.8182L15.5 12.9317C16.5834 12.1075 17.7084 11.3889 19.0209 10.8605L19.7917 5.25963C19.875 4.75238 20.3125 4.37195 20.8334 4.37195H29.1667C29.6875 4.37195 30.125 4.75238 30.2084 5.25963L30.9792 10.8605C32.2917 11.3889 33.4167 12.1075 34.5 12.9317L39.6875 10.8182C40.1459 10.628 40.7084 10.8182 40.9584 11.2832L45.125 18.596C45.3959 19.061 45.2709 19.6316 44.875 19.9486L40.4792 23.3937L40.625 25.5072L40.4792 27.6207L44.875 31.0658C45.2709 31.3828 45.3959 31.9535 45.125 32.4184L40.9584 39.7312C40.7084 40.1962 40.1459 40.3864 39.6875 40.1962L34.5 38.0827C33.4167 38.907 32.2917 39.6256 30.9792 40.154L30.2084 45.7548C30.125 46.262 29.6875 46.6425 29.1667 46.6425H20.8334ZM23.4375 8.599L22.6667 14.1153C20.1667 14.6437 17.9584 15.9963 16.3542 17.8774L11.3334 15.6793L9.77086 18.4269L14.1667 21.7029C13.3334 24.1686 13.3334 26.8458 14.1667 29.3116L9.75003 32.6087L11.3125 35.3562L16.375 33.1582C17.9792 35.0181 20.1667 36.3707 22.6459 36.878L23.4167 42.4154H26.5834L27.3542 36.8991C29.8334 36.3707 32.0209 35.0181 33.625 33.1582L38.6875 35.3562L40.25 32.6087L35.8334 29.3327C36.6667 26.8599 36.6667 24.1757 35.8334 21.7029L40.2292 18.4269L38.6667 15.6793L33.6459 17.8774C32.0088 15.9548 29.7882 14.6388 27.3334 14.1364L26.5625 8.599H23.4375Z" fill="white"/>
</svg>
